<svg xmlns="http://www.w3.org/2000/svg" width="70" height="70">
<line x1="40" y1="20" x2="30" y2="20" stroke="black" />
<line x1="30" y1="20" x2="30" y2="30" stroke="black" />
<line x1="30" y1="30" x2="40" y2="30" stroke="black" />
<line x1="40" y1="30" x2="40" y2="20" stroke="black" />
<line x1="40" y1="20" x2="60" y2="20" stroke="black" />
<line x1="60" y1="20" x2="60" y2="0" stroke="black" />
<line x1="60" y1="0" x2="40" y2="0" stroke="black" />
<line x1="40" y1="0" x2="40" y2="20" stroke="black" />
<line x1="40" y1="20" x2="0" y2="20" stroke="black" />
<line x1="0" y1="20" x2="0" y2="60" stroke="black" />
<line x1="0" y1="60" x2="40" y2="60" stroke="black" />
<line x1="40" y1="60" x2="40" y2="20" stroke="black" />
<line x1="40" y1="20" x2="40" y2="20" stroke="black" />
<line x1="40" y1="20" x2="40" y2="20" stroke="black" />
<line x1="40" y1="20" x2="40" y2="20" stroke="black" />
<line x1="40" y1="20" x2="40" y2="20" stroke="black" />
<line x1="40" y1="20" x2="40" y2="20" stroke="black" />
<line x1="40" y1="20" x2="40" y2="20" stroke="black" />
<line x1="40" y1="20" x2="40" y2="20" stroke="black" />
<line x1="40" y1="20" x2="40" y2="20" stroke="black" />
<line x1="40" y1="20" x2="40" y2="20" stroke="black" />
<line x1="40" y1="20" x2="40" y2="20" stroke="black" />
<line x1="40" y1="20" x2="40" y2="20" stroke="black" />
<line x1="40" y1="20" x2="40" y2="20" stroke="black" />
<line x1="40" y1="20" x2="40" y2="20" stroke="black" />
<line x1="40" y1="20" x2="40" y2="20" stroke="black" />
<line x1="40" y1="20" x2="40" y2="20" stroke="black" />
<line x1="40" y1="20" x2="40" y2="20" stroke="black" />
<line x1="40" y1="20" x2="40" y2="20" stroke="black" />
<line x1="40" y1="20" x2="40" y2="20" stroke="black" />
<line x1="40" y1="20" x2="40" y2="20" stroke="black" />
<line x1="40" y1="20" x2="40" y2="20" stroke="black" />
<line x1="40" y1="20" x2="40" y2="20" stroke="black" />
<line x1="40" y1="20" x2="40" y2="20" stroke="black" />
<line x1="40" y1="20" x2="40" y2="20" stroke="black" />
<line x1="40" y1="20" x2="40" y2="20" stroke="black" />
<line x1="40" y1="20" x2="40" y2="20" stroke="black" />
<line x1="40" y1="20" x2="40" y2="20" stroke="black" />
<line x1="40" y1="20" x2="40" y2="20" stroke="black" />
<line x1="40" y1="20" x2="40" y2="20" stroke="black" />
<line x1="40" y1="20" x2="40" y2="20" stroke="black" />
<line x1="40" y1="20" x2="40" y2="20" stroke="black" />
<line x1="40" y1="20" x2="40" y2="20" stroke="black" />
<line x1="40" y1="20" x2="40" y2="20" stroke="black" />
<line x1="40" y1="20" x2="40" y2="20" stroke="black" />
<line x1="40" y1="20" x2="40" y2="20" stroke="black" />
<line x1="40" y1="20" x2="40" y2="20" stroke="black" />
<line x1="40" y1="20" x2="40" y2="20" stroke="black" />
<line x1="40" y1="20" x2="40" y2="20" stroke="black" />
<line x1="40" y1="20" x2="40" y2="20" stroke="black" />
<line x1="40" y1="20" x2="40" y2="20" stroke="black" />
<line x1="40" y1="20" x2="40" y2="20" stroke="black" />
<line x1="40" y1="20" x2="40" y2="20" stroke="black" />
<line x1="40" y1="20" x2="40" y2="20" stroke="black" />
<line x1="40" y1="20" x2="40" y2="20" stroke="black" />
<line x1="40" y1="20" x2="40" y2="20" stroke="black" />
<line x1="40" y1="20" x2="40" y2="20" stroke="black" />
<line x1="40" y1="20" x2="40" y2="20" stroke="black" />
<line x1="40" y1="20" x2="40" y2="20" stroke="black" />
<line x1="40" y1="20" x2="40" y2="20" stroke="black" />
<line x1="40" y1="20" x2="40" y2="20" stroke="black" />
<line x1="40" y1="20" x2="40" y2="20" stroke="black" />
<line x1="40" y1="20" x2="40" y2="20" stroke="black" />
</svg>