<svg xmlns="http://www.w3.org/2000/svg" width="40" height="40">
<line x1="0" y1="0" x2="10" y2="0" stroke="black" />
<line x1="10" y1="0" x2="0" y2="10" stroke="black" />
<line x1="0" y1="10" x2="10" y2="10" stroke="black" />
<line x1="10" y1="10" x2="20" y2="0" stroke="black" />
<line x1="20" y1="0" x2="30" y2="0" stroke="black" />
<line x1="30" y1="0" x2="20" y2="10" stroke="black" />
<line x1="20" y1="10" x2="30" y2="10" stroke="black" />
<line x1="30" y1="10" x2="0" y2="20" stroke="black" />
<line x1="0" y1="20" x2="10" y2="20" stroke="black" />
<line x1="10" y1="20" x2="0" y2="30" stroke="black" />
<line x1="0" y1="30" x2="10" y2="30" stroke="black" />
<line x1="10" y1="30" x2="20" y2="20" stroke="black" />
<line x1="20" y1="20" x2="30" y2="20" stroke="black" />
<line x1="30" y1="20" x2="20" y2="30" stroke="black" />
<line x1="20" y1="30" x2="30" y2="30" stroke="black" />
</svg>